<?xml version="1.0" encoding="UTF-8" standalone="no"?>
<!-- Created with Inkscape (http://www.inkscape.org/) -->

<svg
   width="210mm"
   height="297mm"
   viewBox="0 0 210 297"
   version="1.1"
   id="svg5"
   inkscape:version="1.1.2 (0a00cf5339, 2022-02-04)"
   sodipodi:docname="name-test.svg"
   xmlns:inkscape="http://www.inkscape.org/namespaces/inkscape"
   xmlns:sodipodi="http://sodipodi.sourceforge.net/DTD/sodipodi-0.dtd"
   xmlns="http://www.w3.org/2000/svg"
   xmlns:svg="http://www.w3.org/2000/svg">
  <sodipodi:namedview
     id="namedview7"
     pagecolor="#505050"
     bordercolor="#ffffff"
     borderopacity="1"
     inkscape:pageshadow="0"
     inkscape:pageopacity="0"
     inkscape:pagecheckerboard="1"
     inkscape:document-units="mm"
     showgrid="false"
     inkscape:zoom="1.4948513"
     inkscape:cx="198.34749"
     inkscape:cy="243.168"
     inkscape:window-width="1920"
     inkscape:window-height="1020"
     inkscape:window-x="0"
     inkscape:window-y="0"
     inkscape:window-maximized="1"
     inkscape:current-layer="layer1"
     inkscape:lockguides="true" />
  <defs
     id="defs2" />
  <g
     inkscape:label="Layer 1"
     inkscape:groupmode="layer"
     id="layer1">
    <path
       class="name-path animate-write"
       style="opacity:1;fill:none;stroke:#000000;stroke-width:3;stroke-linecap:butt;stroke-linejoin:miter;stroke-miterlimit:4;stroke-dasharray:466;stroke-opacity:1"
       d="M 30.014636,60.80087 C 23.480264,56.31235 26.353764,57.85503 21.291512,56.18612 16.934484,54.74971 13.74579,55.11923 10.682936,56.73636 7.620082,58.35348 3.822239,67.95864 3.822239,67.95864 c 0,0 -1.812007,7.41195 0.707084,11.29716 2.329263,3.59244 0.770063,3.813 5.695089,6.68095 4.92503,2.86794 9.085071,-1.86531 10.361313,-3.22138 1.276241,-1.35607 0.989401,1.29876 3.421697,2.9808 2.432296,1.68205 7.106097,-0.48897 5.182307,-0.56918 -1.923791,-0.0802 -3.138496,-9.69221 -3.138496,-9.69221 0,0 3.139596,-2.17697 3.745693,-3.41771 0.6061,-1.24073 -1.199486,2.96975 -4.935537,1.70564 -3.736054,-1.2641 -11.526226,2.05035 -8.245269,2.09482 3.280961,0.0445 9.703393,-1.02434 9.703393,-1.02434 m 26.49086,4.87012 -1.492836,2.30882 -1.684064,1.42486 -2.631082,1.16618 -2.789808,0.28522 c 0,0 -11.290947,-7.95722 -8.836159,-14.15456 2.454789,-6.19734 8.368909,-7.99667 8.789553,-8.19889 1.772733,-0.85223 10.913499,1.69079 7.989054,6.35853 -1.153625,1.84131 -2.450177,3.66306 -4.238035,5.08911 -2.744372,2.18901 -5.872895,3.0361 -5.872895,3.0361 0,0 -4.401044,1.54763 -5.53531,0.40289 m 22.248114,-9.09031 c 0.496136,-0.2136 9.754415,-4.19686 9.754415,-4.19686 0,0 10.19288,1.59734 9.32116,6.58592 -0.87173,4.98858 2.65627,7.5591 1.58136,11.98061 -1.07492,4.4215 4.61081,-1.17445 3.64366,1.48606 -0.96715,2.66051 -4.94955,2.65439 -5.21573,2.02154 -0.26618,-0.63285 -3.88176,-2.51488 -6.04221,-2.2613 -2.16046,0.25358 -3.66443,2.19842 -6.9304,2.65379 -1.93219,-2.88188 -1.84044,-8.81562 -1.84044,-8.81562 0,0 10.6298,-8.86491 7.02272,-5.85672 -7.02272,5.85672 0.55804,-2.29177 4.68494,-0.35425 4.16398,1.95493 2.99766,1.86757 2.99766,1.86757 m 5,-3 7.37412,-5.45129 c 0,0 3.45484,2.70208 2.9666,3.73513 -0.48824,1.03304 5.7551,-4.3307 5.7551,-4.3307 0,0 6.79819,2.45388 5.82928,4.24681 -0.96892,1.79292 -4.12352,4.72807 -4.12352,4.72807 0,0 -3.34743,-6.05858 -4.97162,-4.51837 -1.62418,1.54021 -4.1545,1.89225 -3.55194,3.10653 0.60256,1.21427 1.77572,12.42841 1.77572,12.42841 0,0 2.75126,0.47265 3.02355,-0.24201 0.27228,-0.71465 0.34245,0.88497 0.34245,0.88497 l -7.283,5.4765 c 0,0 -2.026058,-2.201149 -2.49994,-5.73954 -0.405485,-0.270851 -0.785716,-9.256726 -0.99281,-13.65905 z m 26.87197,13.19828 c 0,0 8.24642,2.98363 11.72596,2.99885 2.36112,0.0103 7.50256,-3.53254 6.99401,-5.80102 -0.68594,-3.0598 -3.43726,-5.17263 -7.98919,-7.5256 -6.13266,-3.17008 -9.06424,-3.98255 -9.06424,-3.98255 -1.83025,-0.512117 0.0748,-6.4852 0.0748,-6.4852 0,0 1.90997,-1.2334 3.4001,-1.01439 2.85569,0.41971 4.13365,0.23522 5.76949,1.325652 l 5.37501,3.024018"
       id="path961"
       sodipodi:nodetypes="csscssssscsscccccccssssccccsssssccsscccscscsscsccccccsssccscc" />
  </g>
</svg>
